<svg width="163" height="151" viewBox="0 0 163 151" fill="none" xmlns="http://www.w3.org/2000/svg">
<path d="M163 75.5C163 117.197 126.511 151 81.5 151C36.4888 151 0 117.197 0 75.5C0 33.8025 36.4888 0 81.5 0C126.511 0 163 33.8025 163 75.5Z" fill="white"/>
<path d="M89.238 123.252C88.0807 123.252 87.026 123.098 86.074 122.79C85.122 122.482 84.3613 121.978 83.792 121.278C83.232 120.569 82.952 119.635 82.952 118.478C82.952 117.321 83.274 116.387 83.918 115.678C84.5713 114.959 85.4347 114.437 86.508 114.11C87.5813 113.774 88.7573 113.606 90.036 113.606C90.5587 113.606 91.0673 113.643 91.562 113.718C92.0567 113.793 92.4907 113.886 92.864 113.998C93.2373 114.101 93.4987 114.199 93.648 114.292C93.6293 114.021 93.578 113.741 93.494 113.452C93.41 113.163 93.284 112.915 93.116 112.71C92.8173 112.253 92.3927 111.87 91.842 111.562C91.3007 111.254 90.596 111.1 89.728 111.1C88.8413 111.1 88.0713 111.296 87.418 111.688C86.7647 112.08 86.2747 112.533 85.948 113.046L82.91 111.086C83.33 110.489 83.89 109.961 84.59 109.504C85.29 109.047 86.088 108.692 86.984 108.44C87.88 108.179 88.832 108.048 89.84 108.048C91.464 108.048 92.7893 108.328 93.816 108.888C94.8427 109.448 95.5987 110.213 96.084 111.184C96.3173 111.66 96.5087 112.183 96.658 112.752C96.8073 113.321 96.9053 113.993 96.952 114.768C96.98 115.487 97.0033 116.135 97.022 116.714C97.0407 117.293 97.064 117.82 97.092 118.296C97.1107 118.977 97.19 119.421 97.33 119.626C97.4793 119.822 97.68 119.92 97.932 119.92C98.2027 119.92 98.436 119.831 98.632 119.654C98.828 119.477 98.9493 119.234 98.996 118.926L100.41 121.278C100.326 121.829 100.041 122.272 99.556 122.608C99.0707 122.935 98.478 123.098 97.778 123.098C97.246 123.098 96.756 123.005 96.308 122.818C95.86 122.622 95.4913 122.37 95.202 122.062C94.922 121.745 94.7587 121.399 94.712 121.026C94.544 121.371 94.2127 121.717 93.718 122.062C93.2233 122.407 92.598 122.692 91.842 122.916C91.086 123.14 90.218 123.252 89.238 123.252ZM90.022 120.326C90.5167 120.326 91.016 120.251 91.52 120.102C92.024 119.953 92.4813 119.757 92.892 119.514C93.312 119.271 93.6433 119.019 93.886 118.758C93.8673 118.366 93.8533 117.993 93.844 117.638C93.844 117.283 93.8487 116.971 93.858 116.7C93.634 116.616 93.2 116.518 92.556 116.406C91.9213 116.285 91.2353 116.224 90.498 116.224C89.8447 116.224 89.238 116.303 88.678 116.462C88.1273 116.611 87.6793 116.84 87.334 117.148C86.998 117.447 86.83 117.825 86.83 118.282C86.83 118.805 86.9607 119.215 87.222 119.514C87.4927 119.813 87.866 120.023 88.342 120.144C88.8273 120.265 89.3873 120.326 90.022 120.326Z" fill="#E32A01"/>
<path d="M100.983 129.23C101.114 127.746 101.226 126.178 101.319 124.526C101.422 122.883 101.506 121.245 101.571 119.612C101.636 117.969 101.692 116.42 101.739 114.964C101.786 113.499 101.818 112.197 101.837 111.058C101.856 109.919 101.865 109.033 101.865 108.398C102.378 108.23 102.971 108.113 103.643 108.048C104.315 107.973 104.959 107.936 105.575 107.936C105.594 108.225 105.608 108.575 105.617 108.986C105.636 109.397 105.645 109.77 105.645 110.106C105.85 109.863 106.177 109.574 106.625 109.238C107.073 108.902 107.633 108.608 108.305 108.356C108.977 108.095 109.738 107.964 110.587 107.964C112.454 107.964 113.849 108.561 114.773 109.756C115.706 110.941 116.173 112.593 116.173 114.712C116.173 116.205 115.902 117.498 115.361 118.59C114.82 119.682 114.064 120.522 113.093 121.11C112.132 121.698 111.012 121.992 109.733 121.992C109.154 121.992 108.557 121.913 107.941 121.754C107.334 121.595 106.788 121.404 106.303 121.18C105.827 120.956 105.5 120.737 105.323 120.522C105.314 120.746 105.295 121.124 105.267 121.656C105.248 122.179 105.22 122.781 105.183 123.462C105.155 124.143 105.118 124.834 105.071 125.534C105.024 126.243 104.978 126.897 104.931 127.494C104.894 128.091 104.852 128.558 104.805 128.894C104.366 128.978 103.9 129.043 103.405 129.09C102.92 129.146 102.458 129.183 102.019 129.202C101.59 129.221 101.244 129.23 100.983 129.23ZM109.159 118.17C109.906 118.17 110.517 118.021 110.993 117.722C111.478 117.423 111.838 116.994 112.071 116.434C112.304 115.865 112.421 115.188 112.421 114.404C112.421 113.368 112.174 112.57 111.679 112.01C111.194 111.441 110.442 111.156 109.425 111.156C108.809 111.156 108.244 111.259 107.731 111.464C107.218 111.669 106.784 111.907 106.429 112.178C106.084 112.449 105.827 112.691 105.659 112.906C105.659 113.055 105.65 113.298 105.631 113.634C105.622 113.97 105.612 114.343 105.603 114.754C105.594 115.155 105.58 115.543 105.561 115.916C105.552 116.28 105.547 116.56 105.547 116.756C105.715 116.924 105.958 117.12 106.275 117.344C106.592 117.559 106.989 117.75 107.465 117.918C107.941 118.086 108.506 118.17 109.159 118.17Z" fill="#E32A01"/>
<path d="M118.045 129.23C118.176 127.746 118.288 126.178 118.381 124.526C118.484 122.883 118.568 121.245 118.633 119.612C118.699 117.969 118.755 116.42 118.801 114.964C118.848 113.499 118.881 112.197 118.899 111.058C118.918 109.919 118.927 109.033 118.927 108.398C119.441 108.23 120.033 108.113 120.705 108.048C121.377 107.973 122.021 107.936 122.637 107.936C122.656 108.225 122.67 108.575 122.679 108.986C122.698 109.397 122.707 109.77 122.707 110.106C122.913 109.863 123.239 109.574 123.687 109.238C124.135 108.902 124.695 108.608 125.367 108.356C126.039 108.095 126.8 107.964 127.649 107.964C129.516 107.964 130.911 108.561 131.835 109.756C132.769 110.941 133.235 112.593 133.235 114.712C133.235 116.205 132.965 117.498 132.423 118.59C131.882 119.682 131.126 120.522 130.155 121.11C129.194 121.698 128.074 121.992 126.795 121.992C126.217 121.992 125.619 121.913 125.003 121.754C124.397 121.595 123.851 121.404 123.365 121.18C122.889 120.956 122.563 120.737 122.385 120.522C122.376 120.746 122.357 121.124 122.329 121.656C122.311 122.179 122.283 122.781 122.245 123.462C122.217 124.143 122.18 124.834 122.133 125.534C122.087 126.243 122.04 126.897 121.993 127.494C121.956 128.091 121.914 128.558 121.867 128.894C121.429 128.978 120.962 129.043 120.467 129.09C119.982 129.146 119.52 129.183 119.081 129.202C118.652 129.221 118.307 129.23 118.045 129.23ZM126.221 118.17C126.968 118.17 127.579 118.021 128.055 117.722C128.541 117.423 128.9 116.994 129.133 116.434C129.367 115.865 129.483 115.188 129.483 114.404C129.483 113.368 129.236 112.57 128.741 112.01C128.256 111.441 127.505 111.156 126.487 111.156C125.871 111.156 125.307 111.259 124.793 111.464C124.28 111.669 123.846 111.907 123.491 112.178C123.146 112.449 122.889 112.691 122.721 112.906C122.721 113.055 122.712 113.298 122.693 113.634C122.684 113.97 122.675 114.343 122.665 114.754C122.656 115.155 122.642 115.543 122.623 115.916C122.614 116.28 122.609 116.56 122.609 116.756C122.777 116.924 123.02 117.12 123.337 117.344C123.655 117.559 124.051 117.75 124.527 117.918C125.003 118.086 125.568 118.17 126.221 118.17Z" fill="#E32A01"/>
<path d="M42.4304 95.712L51.1664 94.176C52.0944 94.624 53.0704 95.056 54.0944 95.472C55.1504 95.856 56.2064 96.208 57.2624 96.528C58.3184 96.848 59.2944 97.152 60.1904 97.44C60.2224 97.632 60.2384 97.792 60.2384 97.92C60.2384 98.08 60.2384 98.224 60.2384 98.352C60.2384 100.176 59.7584 101.504 58.7984 102.336C57.8704 103.168 56.6384 103.584 55.1024 103.584C53.6304 103.584 52.1104 103.168 50.5424 102.336C48.9744 101.536 47.3744 100.368 45.7424 98.832L42.4304 95.712ZM58.4624 81.36C58.4624 84.688 57.7904 87.504 56.4464 89.808C55.1344 92.112 53.3264 93.856 51.0224 95.04C48.7504 96.192 46.1584 96.768 43.2464 96.768C40.3344 96.768 37.7264 96.176 35.4224 94.992C33.1504 93.808 31.3584 92.08 30.0464 89.808C28.7344 87.504 28.0784 84.688 28.0784 81.36C28.0784 78.032 28.7504 75.232 30.0944 72.96C31.4384 70.656 33.2464 68.928 35.5184 67.776C37.8224 66.592 40.3984 66 43.2464 66C46.0944 66 48.6704 66.592 50.9744 67.776C53.2784 68.928 55.1024 70.656 56.4464 72.96C57.7904 75.232 58.4624 78.032 58.4624 81.36ZM49.8224 81.36C49.8224 78.512 49.2304 76.368 48.0464 74.928C46.8624 73.488 45.2624 72.768 43.2464 72.768C41.2944 72.768 39.7104 73.488 38.4944 74.928C37.3104 76.336 36.7184 78.48 36.7184 81.36C36.7184 84.272 37.3104 86.448 38.4944 87.888C39.7104 89.296 41.3104 90 43.2944 90C45.2784 90 46.8624 89.296 48.0464 87.888C49.2304 86.448 49.8224 84.272 49.8224 81.36Z" fill="#00B300" fill-opacity="0.93"/>
<path d="M76.1782 96.864C73.4902 96.864 71.1702 96.384 69.2182 95.424C67.2982 94.464 65.8102 93.12 64.7542 91.392C63.7302 89.664 63.2182 87.648 63.2182 85.344V82.416H71.6182V85.2C71.6182 86.704 72.0342 87.904 72.8662 88.8C73.7302 89.664 74.8342 90.096 76.1782 90.096C77.5222 90.096 78.6102 89.664 79.4422 88.8C80.3062 87.904 80.7382 86.704 80.7382 85.2V82.416H89.1382V85.344C89.1382 87.648 88.6102 89.664 87.5542 91.392C86.5302 93.12 85.0422 94.464 83.0902 95.424C81.1702 96.384 78.8662 96.864 76.1782 96.864ZM71.6182 83.712H63.2182V66.816C63.6022 66.752 64.1622 66.672 64.8982 66.576C65.6662 66.448 66.4022 66.384 67.1062 66.384C68.7062 66.384 69.8582 66.656 70.5622 67.2C71.2662 67.744 71.6182 68.8 71.6182 70.368V83.712ZM89.1382 83.808H80.7382V66.816C81.1222 66.752 81.6822 66.672 82.4182 66.576C83.1862 66.448 83.9222 66.384 84.6262 66.384C86.2262 66.384 87.3782 66.656 88.0822 67.2C88.7862 67.744 89.1382 68.8 89.1382 70.368V83.808Z" fill="#00B300" fill-opacity="0.93"/>
<path d="M95.2372 74.784H103.637V95.952C103.285 96.048 102.741 96.144 102.005 96.24C101.269 96.336 100.517 96.384 99.7492 96.384C98.0852 96.384 96.9172 96.096 96.2452 95.52C95.5732 94.912 95.2372 93.872 95.2372 92.4V74.784ZM103.637 85.872H95.2372V66.816C95.6212 66.752 96.1812 66.672 96.9172 66.576C97.6852 66.448 98.4212 66.384 99.1252 66.384C100.725 66.384 101.877 66.656 102.581 67.2C103.285 67.744 103.637 68.8 103.637 70.368V85.872Z" fill="#00B300" fill-opacity="0.93"/>
<path d="M110.486 86.784L127.334 66.768H129.734C131.142 67.92 131.846 69.456 131.846 71.376C131.846 72.176 131.654 72.976 131.27 73.776C130.918 74.544 130.454 75.28 129.878 75.984L113.174 96H110.246C109.702 95.552 109.254 94.944 108.902 94.176C108.55 93.408 108.374 92.528 108.374 91.536C108.374 90.736 108.582 89.92 108.998 89.088C109.414 88.256 109.91 87.488 110.486 86.784ZM111.206 96L115.622 89.136H131.27C131.494 89.52 131.702 90 131.894 90.576C132.086 91.152 132.182 91.792 132.182 92.496C132.182 93.712 131.91 94.608 131.366 95.184C130.854 95.728 130.134 96 129.206 96H111.206ZM128.198 66.768L124.694 73.632H109.718C109.494 73.248 109.286 72.784 109.094 72.24C108.902 71.664 108.806 71.024 108.806 70.32C108.806 69.104 109.078 68.208 109.622 67.632C110.166 67.056 110.902 66.768 111.83 66.768H128.198Z" fill="#00B300" fill-opacity="0.93"/>
<path d="M27.208 55.144C27.1867 54.984 27.1333 54.6427 27.048 54.12C26.9627 53.5973 26.8613 52.9627 26.744 52.216C26.6267 51.4693 26.504 50.68 26.376 49.848C26.2587 49.0053 26.152 48.1893 26.056 47.4C25.7893 47.4533 25.4267 47.544 24.968 47.672C24.5093 47.7893 24.1147 47.9067 23.784 48.024C23.6453 47.5653 23.528 46.984 23.432 46.28C23.3467 45.5653 23.304 44.8827 23.304 44.232C23.4 44.2 23.56 44.152 23.784 44.088C24.008 44.024 24.2533 43.96 24.52 43.896C24.7867 43.8213 25.0373 43.7627 25.272 43.72C25.5067 43.6667 25.672 43.6293 25.768 43.608C25.704 43.0853 25.6507 42.5573 25.608 42.024C25.5653 41.4907 25.544 40.9787 25.544 40.488C25.544 39.1973 25.768 38.0027 26.216 36.904C26.664 35.8053 27.352 34.92 28.28 34.248C29.208 33.5653 30.376 33.224 31.784 33.224C32.68 33.224 33.448 33.336 34.088 33.56C34.728 33.784 35.2667 34.0613 35.704 34.392C36.1413 34.7227 36.4933 35.0587 36.76 35.4C37.0267 35.7307 37.2187 36.008 37.336 36.232C37.144 36.584 36.8933 37.0053 36.584 37.496C36.2747 37.976 35.976 38.4293 35.688 38.856C35.4 39.272 35.1867 39.5653 35.048 39.736C34.9413 39.5653 34.7973 39.3573 34.616 39.112C34.4347 38.8667 34.2213 38.6213 33.976 38.376C33.7413 38.1307 33.4747 37.928 33.176 37.768C32.8773 37.608 32.5413 37.528 32.168 37.528C31.5813 37.528 31.112 37.6827 30.76 37.992C30.4187 38.2907 30.1733 38.6907 30.024 39.192C29.8747 39.6933 29.8 40.2427 29.8 40.84C29.8 41.1493 29.816 41.5013 29.848 41.896C29.8907 42.28 29.944 42.632 30.008 42.952C30.3493 42.9307 30.7973 42.9147 31.352 42.904C31.9173 42.8827 32.4667 42.872 33 42.872C33.544 42.8613 33.9547 42.8667 34.232 42.888C34.296 43.3787 34.3387 43.9653 34.36 44.648C34.3813 45.3307 34.392 45.944 34.392 46.488C34.296 46.488 34.0133 46.504 33.544 46.536C33.0853 46.5573 32.568 46.5893 31.992 46.632C31.416 46.664 30.92 46.7013 30.504 46.744C30.568 47.1173 30.6533 47.6133 30.76 48.232C30.8667 48.84 30.984 49.496 31.112 50.2C31.24 50.904 31.3627 51.5813 31.48 52.232C31.608 52.8827 31.72 53.448 31.816 53.928C31.912 54.408 31.976 54.712 32.008 54.84C31.6347 54.904 31.16 54.9573 30.584 55C30.008 55.0427 29.416 55.0747 28.808 55.096C28.2107 55.1173 27.6773 55.1333 27.208 55.144Z" fill="#3B6EDD"/>
<path d="M42.6717 40.712C42.9384 40.2107 43.3437 39.7413 43.8877 39.304C44.4317 38.8667 45.0611 38.5093 45.7757 38.232C46.5011 37.9547 47.2584 37.816 48.0478 37.816C48.5384 37.816 49.0291 37.864 49.5198 37.96C50.0211 38.056 50.3944 38.184 50.6398 38.344L49.7598 42.808C49.5251 42.712 49.2157 42.6053 48.8317 42.488C48.4477 42.3707 47.9998 42.312 47.4878 42.312C46.9438 42.312 46.4104 42.4027 45.8877 42.584C45.3757 42.7653 44.9011 43.0213 44.4637 43.352C44.0264 43.6827 43.6531 44.072 43.3438 44.52C43.4611 45.192 43.5837 46.0293 43.7118 47.032C43.8504 48.024 43.9784 49.048 44.0957 50.104C44.2131 51.1493 44.3091 52.104 44.3838 52.968C44.4691 53.832 44.5117 54.472 44.5117 54.888C43.8504 54.9733 43.0824 55.0267 42.2077 55.048C41.3437 55.0693 40.5171 55.0747 39.7277 55.064C39.7277 54.136 39.7011 53.1067 39.6478 51.976C39.6051 50.8453 39.5411 49.6773 39.4557 48.472C39.3704 47.256 39.2637 46.056 39.1357 44.872C39.0077 43.6773 38.8584 42.552 38.6878 41.496C38.5278 40.44 38.3518 39.512 38.1598 38.712C38.5971 38.584 39.0824 38.4613 39.6157 38.344C40.1597 38.2267 40.6558 38.1307 41.1038 38.056C41.5518 37.9813 41.8398 37.9387 41.9678 37.928C42.0958 38.248 42.2397 38.7013 42.3997 39.288C42.5597 39.864 42.6504 40.3387 42.6717 40.712Z" fill="#3B6EDD"/>
<path d="M67.4075 51.896C67.1408 52.2373 66.7835 52.5947 66.3355 52.968C65.8982 53.3307 65.3702 53.6667 64.7515 53.976C64.1328 54.2747 63.4182 54.52 62.6075 54.712C61.7968 54.904 60.8902 55 59.8875 55C58.2768 55 56.8528 54.6853 55.6155 54.056C54.3888 53.4267 53.4288 52.504 52.7355 51.288C52.0528 50.0613 51.7115 48.5467 51.7115 46.744C51.7115 44.9627 52.0742 43.416 52.7995 42.104C53.5248 40.7813 54.5328 39.7573 55.8235 39.032C57.1142 38.3067 58.6075 37.944 60.3035 37.944C62.4475 37.944 64.1328 38.5627 65.3595 39.8C66.5862 41.0267 67.2422 42.712 67.3275 44.856C67.3382 45.2293 67.3328 45.576 67.3115 45.896C67.3008 46.2053 67.2688 46.5413 67.2155 46.904C67.0662 46.8933 66.7462 46.8827 66.2555 46.872C65.7648 46.8507 65.2048 46.8347 64.5755 46.824C63.9462 46.8027 63.3382 46.7867 62.7515 46.776C62.1755 46.7653 61.7222 46.76 61.3915 46.76C60.4208 46.76 59.4555 46.808 58.4955 46.904C57.5355 46.9893 56.7142 47.0853 56.0315 47.192C56.0315 47.416 56.0475 47.6347 56.0795 47.848C56.1115 48.0613 56.1542 48.264 56.2075 48.456C56.3675 48.968 56.6395 49.4107 57.0235 49.784C57.4182 50.1467 57.8875 50.424 58.4315 50.616C58.9862 50.808 59.5675 50.904 60.1755 50.904C60.7622 50.904 61.2902 50.824 61.7595 50.664C62.2288 50.504 62.6448 50.3013 63.0075 50.056C63.3808 49.8107 63.7062 49.5547 63.9835 49.288C64.2608 49.0213 64.5062 48.7867 64.7195 48.584C64.7835 48.6373 64.9328 48.7813 65.1675 49.016C65.4022 49.2507 65.6688 49.5333 65.9675 49.864C66.2662 50.1947 66.5435 50.5413 66.7995 50.904C67.0662 51.2667 67.2688 51.5973 67.4075 51.896ZM56.1595 44.488C56.7355 44.392 57.4288 44.3067 58.2395 44.232C59.0608 44.1573 60.0048 44.12 61.0715 44.12C61.6368 44.12 62.1275 44.1307 62.5435 44.152C62.9702 44.1627 63.2688 44.1733 63.4395 44.184C63.4395 43.9173 63.4022 43.6293 63.3275 43.32C63.2315 42.904 63.0448 42.504 62.7675 42.12C62.5008 41.7253 62.1488 41.4053 61.7115 41.16C61.2742 40.9147 60.7462 40.792 60.1275 40.792C59.3595 40.792 58.6822 40.9573 58.0955 41.288C57.5088 41.608 57.0448 42.0507 56.7035 42.616C56.3728 43.1707 56.1915 43.7947 56.1595 44.488Z" fill="#3B6EDD"/>
<path d="M77.2637 56.28C76.1011 56.28 75.0077 56.1307 73.9837 55.832C72.9704 55.544 72.0851 55.1867 71.3278 54.76C70.5811 54.3227 70.0211 53.9013 69.6478 53.496C69.7224 53.3147 69.8451 53.0533 70.0157 52.712C70.1864 52.36 70.3837 51.9867 70.6077 51.592C70.8424 51.1867 71.0718 50.8133 71.2958 50.472C71.5304 50.12 71.7384 49.8587 71.9198 49.688C72.4104 50.1573 72.9597 50.6107 73.5677 51.048C74.1864 51.4853 74.8264 51.8427 75.4877 52.12C76.1597 52.3973 76.7998 52.536 77.4078 52.536C77.9304 52.536 78.3998 52.4667 78.8158 52.328C79.2318 52.1787 79.5624 51.9653 79.8078 51.688C80.0531 51.4 80.1758 51.0533 80.1758 50.648C80.1758 50.1787 79.9837 49.7467 79.5997 49.352C79.2157 48.9573 78.7197 48.5947 78.1117 48.264C77.5037 47.9333 76.8531 47.6347 76.1598 47.368C75.2531 47.0053 74.4104 46.5947 73.6318 46.136C72.8638 45.6773 72.2451 45.1067 71.7757 44.424C71.3171 43.7413 71.0878 42.8827 71.0878 41.848C71.0878 40.8027 71.3917 39.9227 71.9997 39.208C72.6184 38.4933 73.4237 37.9547 74.4157 37.592C75.4184 37.2293 76.4904 37.048 77.6318 37.048C78.7731 37.048 79.8931 37.2027 80.9918 37.512C82.0904 37.8213 82.9758 38.232 83.6478 38.744C83.5838 38.936 83.4611 39.2187 83.2798 39.592C83.0984 39.9653 82.8797 40.36 82.6237 40.776C82.3677 41.192 82.0958 41.576 81.8078 41.928C81.3491 41.5653 80.7731 41.2187 80.0798 40.888C79.3971 40.5573 78.6664 40.392 77.8877 40.392C77.4611 40.392 77.0397 40.44 76.6237 40.536C76.2077 40.632 75.8664 40.7973 75.5997 41.032C75.3331 41.256 75.1998 41.5653 75.1998 41.96C75.1998 42.3227 75.3384 42.648 75.6158 42.936C75.8931 43.224 76.2824 43.496 76.7838 43.752C77.2958 43.9973 77.8878 44.2533 78.5598 44.52C79.2744 44.7867 79.9731 45.096 80.6557 45.448C81.3491 45.8 81.9731 46.216 82.5277 46.696C83.0931 47.176 83.5411 47.7307 83.8717 48.36C84.2024 48.9787 84.3678 49.6933 84.3678 50.504C84.3678 51.784 84.0424 52.856 83.3918 53.72C82.7518 54.5733 81.8931 55.2133 80.8158 55.64C79.7491 56.0667 78.5651 56.28 77.2637 56.28Z" fill="#3B6EDD"/>
<path d="M91.0595 55.224C90.8355 55.256 90.5262 55.2827 90.1315 55.304C89.7475 55.3253 89.3422 55.336 88.9155 55.336C88.4462 55.336 87.9982 55.3147 87.5715 55.272C87.1448 55.24 86.8302 55.192 86.6275 55.128C86.7235 54.4453 86.8035 53.5707 86.8675 52.504C86.9422 51.4373 87.0008 50.2427 87.0435 48.92C87.0862 47.5973 87.1075 46.216 87.1075 44.776C87.1075 43.3467 87.0862 41.9013 87.0435 40.44C87.0008 38.9787 86.9422 37.5707 86.8675 36.216C86.8035 34.8507 86.7342 33.6027 86.6595 32.472C86.7448 32.44 86.9582 32.3973 87.2995 32.344C87.6515 32.28 88.0515 32.216 88.4995 32.152C88.9582 32.088 89.3902 32.0347 89.7955 31.992C90.2008 31.9387 90.5102 31.912 90.7235 31.912C90.8835 32.712 91.0222 33.6827 91.1395 34.824C91.2675 35.9653 91.3688 37.2133 91.4435 38.568C91.5288 39.912 91.5875 41.304 91.6195 42.744C91.9822 42.328 92.4462 41.944 93.0115 41.592C93.5875 41.2293 94.2168 40.9413 94.8995 40.728C95.5822 40.5147 96.2648 40.408 96.9475 40.408C98.2062 40.408 99.1768 40.664 99.8595 41.176C100.553 41.688 101.038 42.4187 101.315 43.368C101.593 44.3173 101.731 45.4587 101.731 46.792C101.731 47.6347 101.699 48.5467 101.635 49.528C101.571 50.4987 101.486 51.464 101.38 52.424C101.273 53.3733 101.161 54.2373 101.044 55.016C100.713 55.0587 100.366 55.0907 100.004 55.112C99.6515 55.144 99.2995 55.16 98.9475 55.16C98.5635 55.16 98.1795 55.144 97.7955 55.112C97.4222 55.08 97.0862 55.032 96.7875 54.968C96.8622 54.4773 96.9422 53.912 97.0275 53.272C97.1128 52.6213 97.1928 51.9547 97.2675 51.272C97.3422 50.5787 97.4008 49.912 97.4435 49.272C97.4968 48.632 97.5235 48.072 97.5235 47.592C97.5235 46.8987 97.4595 46.3013 97.3315 45.8C97.2035 45.2987 96.9848 44.9147 96.6755 44.648C96.3768 44.3707 95.9555 44.232 95.4115 44.232C94.9528 44.232 94.5155 44.3227 94.0995 44.504C93.6942 44.6853 93.3208 44.9093 92.9795 45.176C92.6488 45.432 92.3608 45.688 92.1155 45.944C91.8808 46.2 91.7102 46.408 91.6035 46.568C91.6035 47.6987 91.5768 48.8293 91.5235 49.96C91.4702 51.0907 91.4008 52.12 91.3155 53.048C91.2408 53.976 91.1555 54.7013 91.0595 55.224Z" fill="#3B6EDD"/>
</svg>
